<?xml version="1.0" encoding="UTF-8"?> <svg xmlns="http://www.w3.org/2000/svg" width="160" height="48" viewBox="0 0 160 48" fill="none"> <path d="M69.0298 42.9255C68.1805 42.0874 67.803 41.0632 67.803 39.8527C67.803 38.6422 68.2276 37.618 69.0298 36.78C69.8791 35.942 70.9171 35.5229 72.1911 35.5229C73.7481 35.5229 75.1165 36.3144 75.8242 37.5714L74.8334 38.1301C74.3615 37.199 73.3235 36.5938 72.1439 36.5938C71.153 36.5938 70.3509 36.9196 69.7375 37.5249C69.1241 38.1301 68.841 38.9216 68.841 39.8527C68.841 40.7839 69.1241 41.5288 69.7375 42.1806C70.3509 42.7858 71.153 43.1117 72.1439 43.1117C73.3235 43.1117 74.3143 42.5065 74.8334 41.6219L75.8242 42.1806C75.4939 42.7858 74.9749 43.2979 74.3143 43.6704C73.6538 44.0428 72.946 44.2291 72.1911 44.2291C70.9171 44.1359 69.8319 43.7635 69.0298 42.9255Z" fill="#151F6D"></path> <path d="M79.9291 44.1358C79.0326 44.1358 78.2777 43.8565 77.6643 43.2512C77.0509 42.646 76.7678 41.9011 76.7678 41.0165C76.7678 40.1319 77.0509 39.387 77.6643 38.7818C78.2777 38.1766 79.0326 37.8972 79.9291 37.8972C80.8256 37.8972 81.5806 38.1766 82.194 38.7818C82.8073 39.387 83.1376 40.1319 83.1376 41.0165C83.1376 41.9011 82.8073 42.646 82.194 43.2512C81.5806 43.8565 80.8256 44.1358 79.9291 44.1358ZM81.4862 42.5529C81.9108 42.1339 82.0996 41.6683 82.0996 41.0165C82.0996 40.4113 81.9108 39.8992 81.4862 39.4801C81.0615 39.0611 80.5897 38.8749 79.9763 38.8749C79.3629 38.8749 78.8911 39.0611 78.4664 39.4801C78.0418 39.8992 77.853 40.3647 77.853 41.0165C77.853 41.6218 78.0418 42.1339 78.4664 42.5529C78.8911 42.9719 79.3629 43.1581 79.9763 43.1581C80.5425 43.1581 81.0615 42.9253 81.4862 42.5529Z" fill="#151F6D"></path> <path d="M89.8379 40.3646V44.0426H88.7998V40.4578C88.7998 39.4801 88.2336 38.9214 87.2899 38.9214C86.2519 38.9214 85.5441 39.5732 85.5441 40.8768V44.0426H84.5061V38.0368H85.5441V38.8748C85.9688 38.1765 86.6294 37.8506 87.5259 37.8506C88.9414 37.8971 89.8379 38.8283 89.8379 40.3646Z" fill="#151F6D"></path> <path d="M94.745 39.0611H93.1407V42.2735C93.1407 43.2047 93.6598 43.1116 94.745 43.065V43.9961C92.9048 44.2289 92.1027 43.7634 92.1027 42.2735V39.0611H90.9231V38.0369H92.1027V36.6867L93.1407 36.3608V38.0369H94.745V39.0611Z" fill="#151F6D"></path> <path d="M100.784 38.0368H101.822V43.9961H100.784V42.9718C100.265 43.7633 99.5104 44.1357 98.5196 44.1357C97.6703 44.1357 96.9625 43.8564 96.3491 43.2512C95.7357 42.6459 95.4526 41.901 95.4526 41.0164C95.4526 40.1319 95.7357 39.387 96.3491 38.7817C96.9625 38.1765 97.6703 37.8506 98.5196 37.8506C99.5104 37.8506 100.265 38.223 100.784 39.0145V38.0368ZM100.171 42.5528C100.596 42.1338 100.784 41.6217 100.784 41.0164C100.784 40.4112 100.596 39.8991 100.171 39.4801C99.7464 39.0611 99.2745 38.8748 98.6611 38.8748C98.0477 38.8748 97.5287 39.0611 97.1512 39.4801C96.7266 39.8991 96.5379 40.3646 96.5379 41.0164C96.5379 41.6217 96.7266 42.1338 97.1512 42.5528C97.5759 42.9718 98.0477 43.1581 98.6611 43.1581C99.2745 43.1581 99.7464 42.9718 100.171 42.5528Z" fill="#151F6D"></path> <path d="M104.135 43.2512C103.521 42.646 103.238 41.9011 103.238 41.0165C103.238 40.1319 103.521 39.387 104.135 38.7818C104.748 38.1766 105.503 37.8972 106.399 37.8972C107.579 37.8972 108.617 38.5025 109.089 39.4801L108.192 39.9923C107.909 39.3405 107.201 38.9215 106.399 38.9215C105.786 38.9215 105.267 39.1077 104.889 39.5267C104.512 39.9457 104.276 40.4113 104.276 41.0631C104.276 41.6683 104.465 42.1804 104.889 42.5529C105.314 42.9719 105.786 43.1581 106.399 43.1581C107.201 43.1581 107.909 42.7391 108.24 42.1339L109.136 42.646C108.617 43.5771 107.579 44.1824 106.399 44.1824C105.503 44.1358 104.748 43.8565 104.135 43.2512Z" fill="#151F6D"></path> <path d="M113.571 39.0611H111.967V42.2735C111.967 43.2047 112.486 43.1116 113.571 43.065V43.9961C111.731 44.2289 110.929 43.7634 110.929 42.2735V39.0611H109.749V38.0369H110.929V36.6867L111.967 36.3608V38.0369H113.571V39.0611Z" fill="#151F6D"></path> <path d="M118.997 42.9255C118.148 42.0874 117.771 41.0632 117.771 39.8527C117.771 38.6422 118.195 37.618 118.997 36.78C119.847 35.942 120.885 35.5229 122.159 35.5229C123.716 35.5229 125.084 36.3144 125.792 37.5714L124.801 38.1301C124.329 37.199 123.291 36.5938 122.111 36.5938C121.121 36.5938 120.318 36.9196 119.705 37.5249C119.092 38.1301 118.809 38.9216 118.809 39.8527C118.809 40.7839 119.092 41.5288 119.705 42.1806C120.318 42.7858 121.121 43.1117 122.111 43.1117C123.291 43.1117 124.282 42.5065 124.801 41.6219L125.792 42.1806C125.461 42.7858 124.942 43.2979 124.282 43.6704C123.621 44.0428 122.914 44.2291 122.159 44.2291C120.932 44.1359 119.847 43.7635 118.997 42.9255Z" fill="#151F6D"></path> <path d="M127.821 41.4821C128.009 42.5529 128.859 43.1581 129.991 43.1581C130.793 43.1581 131.359 42.8788 131.737 42.2736L132.633 42.7857C132.02 43.6703 131.171 44.1358 129.991 44.1358C129.047 44.1358 128.245 43.8565 127.632 43.2512C127.018 42.646 126.735 41.9011 126.735 41.0165C126.735 40.1319 127.018 39.387 127.632 38.7818C128.245 38.1766 129 37.8972 129.897 37.8972C130.793 37.8972 131.501 38.2231 132.067 38.8284C132.633 39.4336 132.916 40.1785 132.916 41.0631C132.916 41.2027 132.916 41.389 132.869 41.5286H127.821V41.4821ZM127.821 40.5975H131.878C131.69 39.4801 130.888 38.8749 129.944 38.8749C128.811 38.8749 128.009 39.5267 127.821 40.5975Z" fill="#151F6D"></path> <path d="M139.617 40.3646V44.0426H138.579V40.4578C138.579 39.4801 138.012 38.9214 137.069 38.9214C136.031 38.9214 135.323 39.5732 135.323 40.8768V44.0426H134.285V38.0368H135.323V38.8748C135.748 38.1765 136.408 37.8506 137.305 37.8506C138.673 37.8971 139.617 38.8283 139.617 40.3646Z" fill="#151F6D"></path> <path d="M144.477 39.0611H142.872V42.2735C142.872 43.2047 143.391 43.1116 144.477 43.065V43.9961C142.637 44.2289 141.834 43.7634 141.834 42.2735V39.0611H140.655V38.0369H141.834V36.6867L142.872 36.3608V38.0369H144.477V39.0611Z" fill="#151F6D"></path> <path d="M146.27 41.4821C146.458 42.5529 147.308 43.1581 148.44 43.1581C149.242 43.1581 149.808 42.8788 150.186 42.2736L151.082 42.7857C150.469 43.6703 149.62 44.1358 148.44 44.1358C147.496 44.1358 146.694 43.8565 146.081 43.2512C145.467 42.646 145.184 41.9011 145.184 41.0165C145.184 40.1319 145.467 39.387 146.081 38.7818C146.694 38.1766 147.449 37.8972 148.346 37.8972C149.242 37.8972 149.95 38.2231 150.516 38.8284C151.082 39.4336 151.365 40.1785 151.365 41.0631C151.365 41.2027 151.365 41.389 151.318 41.5286H146.27V41.4821ZM146.27 40.5975H150.327C150.139 39.4801 149.336 38.8749 148.393 38.8749C147.26 38.8749 146.458 39.5267 146.27 40.5975Z" fill="#151F6D"></path> <path d="M153.772 39.0612C154.102 38.3163 154.763 37.9438 155.659 37.9438V39.0147C155.14 38.9681 154.715 39.1078 154.338 39.4337C153.96 39.713 153.772 40.1786 153.772 40.8304V43.9962H152.734V38.037H153.772V39.0612Z" fill="#151F6D"></path> <path d="M48.7408 21.4162C47.0894 22.7663 44.3056 23.6974 42.1351 23.6974C38.3132 23.6974 35.5294 21.7886 34.7744 18.3434H53.0345C53.1761 17.5054 53.2233 16.807 53.2233 16.2949C53.2233 12.9894 52.138 10.1494 49.9676 7.82159C47.7971 5.49375 45.0605 4.32983 41.7104 4.32983C38.1717 4.32983 35.2463 5.4472 32.9815 7.77503C30.7166 10.0563 29.5842 12.8497 29.5842 16.2484C29.5842 19.6936 30.7166 22.5335 33.0286 24.8148C35.3406 27.0495 38.3604 28.1669 42.0879 28.1669C45.5795 28.1669 48.9767 27.0495 51.4303 25.1873L48.7408 21.4162ZM41.7104 8.79928C44.9661 8.79928 47.6084 10.7081 48.269 14.3861H34.7744C35.435 10.9409 38.0301 8.79928 41.7104 8.79928Z" fill="#E04E39"></path> <path d="M69.3128 4.3764C61.8578 3.81771 55.6767 9.91665 56.2901 17.2261C56.7619 22.9991 61.4803 27.6548 67.3311 28.1203C74.7861 28.679 80.92 22.6266 80.3538 15.2707C79.882 9.54419 75.1636 4.84196 69.3128 4.3764ZM69.2184 23.2319C64.5472 23.7906 60.631 19.9263 61.1972 15.3172C61.6219 12.1979 64.1698 9.63731 67.3311 9.26485C72.0023 8.70617 75.9185 12.5704 75.3523 17.1795C74.9749 20.2988 72.4269 22.8594 69.2184 23.2319Z" fill="#E04E39"></path> <path d="M14.391 4.37632C8.91773 4.84188 4.81274 9.54412 4.81274 14.9913V27.3753H9.76704V14.8516C9.76704 11.8254 12.2678 9.31133 15.3819 9.31133H15.4291C18.496 9.31133 21.0439 11.7788 21.0439 14.8516V27.3753H25.9982V14.7585C25.9039 8.70609 20.6665 3.86419 14.391 4.37632Z" fill="#E04E39"></path> <path d="M118.761 4.3764C111.306 3.81772 105.172 9.87009 105.739 17.2261C106.211 22.9991 110.929 27.6548 116.78 28.1203C124.235 28.679 130.369 22.6266 129.802 15.2707C129.331 9.54419 124.612 4.84196 118.761 4.3764ZM118.714 23.2319C114.043 23.7906 110.127 19.9263 110.693 15.3172C111.07 12.1979 113.666 9.63731 116.827 9.26485C121.498 8.70617 125.414 12.5704 124.848 17.1795C124.471 20.2988 121.876 22.8594 118.714 23.2319Z" fill="#E04E39"></path> <path d="M155.895 22.9526C155.848 22.9526 155.801 22.9526 155.753 22.9526H155.187C151.082 22.9526 147.779 20.1126 147.779 16.295C147.779 12.4773 151.082 9.63734 155.187 9.63734H155.895V5.12134H154.715C148.157 5.12134 143.674 10.1029 143.674 16.2484C143.674 22.3939 148.157 27.3755 154.715 27.3755H155.895V22.9526Z" fill="#151F6D"></path> <path d="M133.624 5.12134H132.02V9.54423H133.152C137.257 9.54423 140.56 12.3842 140.56 16.2018C140.56 20.0195 137.257 22.8595 133.152 22.8595H132.02V27.2823H133.624C140.136 27.2823 145.467 22.3008 145.467 16.1553C145.467 10.1029 140.136 5.12134 133.624 5.12134Z" fill="#E04E39"></path> <path d="M95.0281 27.3755L105.078 5.12134H99.5106L93.3295 20.2057C93.188 20.2057 93.188 20.2057 93.0464 20.2057L86.8182 5.12134H81.2505L91.2534 27.3755H95.0281Z" fill="#E04E39"></path> </svg> 